<svg width="85" height="37" viewBox="0 0 85 37" fill="none" xmlns="http://www.w3.org/2000/svg">
<path fill-rule="evenodd" clip-rule="evenodd" d="M6.20085 21.6802C0.695236 18.2389 0.00703446 14.7976 0.00703446 11.8725C-0.165016 8.43117 2.75984 0 15.3195 0C21.8575 0 26.5602 2.06478 28.2233 3.09717V0.34413H85V9.2915H75.3652V21.6802H63.3216V9.2915H40.2669V12.7328H52.9986V21.6802H6.20085ZM15.8357 8.94736C19.1047 8.94736 22.5457 10.668 24.4382 12.7328H28.2233V19.6154C27.019 17.7227 24.163 15.3482 19.6208 14.1093C18.4553 13.7384 17.2898 13.485 16.2348 13.2556C13.8636 12.7401 12.0506 12.3459 12.0506 11.0121C12.0506 9.63562 12.8076 8.94736 15.8357 8.94736Z" fill="black"/>
<path d="M0 36.059V27.2359H3.80796C4.23936 27.2359 4.63758 27.3271 5.00261 27.5093C5.36764 27.6833 5.67875 27.9153 5.93593 28.2052C6.20141 28.4869 6.40882 28.8141 6.55815 29.187C6.70748 29.5515 6.78215 29.9201 6.78215 30.293C6.78215 30.6823 6.71163 31.0634 6.57059 31.4362C6.42956 31.8007 6.23045 32.128 5.97327 32.418C5.72438 32.6996 5.41742 32.9275 5.05239 33.1014C4.69565 33.2671 4.30158 33.35 3.87018 33.35H2.42664V36.059H0ZM2.42664 31.2374H3.7084C3.85773 31.2374 3.99462 31.1711 4.11906 31.0386C4.2518 30.8977 4.31817 30.6492 4.31817 30.293C4.31817 29.9284 4.24351 29.6799 4.09418 29.5473C3.94484 29.4148 3.79551 29.3485 3.64618 29.3485H2.42664V31.2374Z" fill="#7C4DFF"/>
<path d="M12.0536 36.059V27.2359H16.1104C16.5418 27.2359 16.94 27.3271 17.3051 27.5093C17.6701 27.6833 17.9812 27.9153 18.2384 28.2052C18.5039 28.4869 18.7113 28.8141 18.8606 29.187C19.0099 29.5515 19.0846 29.9201 19.0846 30.293C19.0846 30.8066 18.9726 31.2871 18.7486 31.7345C18.5246 32.1736 18.2135 32.5339 17.8153 32.8156L19.6819 36.059H16.9442L15.3887 33.35H14.4802V36.059H12.0536ZM14.4802 31.2374H16.0109C16.1602 31.2374 16.2971 31.1545 16.4215 30.9889C16.5543 30.8232 16.6206 30.5912 16.6206 30.293C16.6206 29.9864 16.546 29.7545 16.3966 29.597C16.2473 29.4314 16.098 29.3485 15.9486 29.3485H14.4802V31.2374Z" fill="#7C4DFF"/>
<path d="M28.6241 36.1336C27.9521 36.1336 27.3423 36.0052 26.7947 35.7484C26.2472 35.4915 25.7785 35.156 25.3885 34.7418C24.9986 34.3193 24.6958 33.8388 24.4801 33.3003C24.2644 32.7618 24.1566 32.2067 24.1566 31.6351C24.1566 31.0551 24.2686 30.4959 24.4925 29.9574C24.7165 29.4189 25.0277 28.9467 25.4259 28.5408C25.8324 28.1265 26.3094 27.7993 26.857 27.559C27.4128 27.3105 28.0184 27.1862 28.6738 27.1862C29.3458 27.1862 29.9556 27.3146 30.5031 27.5715C31.0507 27.8283 31.5194 28.168 31.9094 28.5905C32.2993 29.013 32.5979 29.4935 32.8053 30.032C33.021 30.5705 33.1289 31.1214 33.1289 31.6848C33.1289 32.2647 33.0169 32.8239 32.7929 33.3624C32.5689 33.8926 32.2578 34.3648 31.8596 34.7791C31.4614 35.185 30.9843 35.5122 30.4285 35.7608C29.8809 36.0093 29.2795 36.1336 28.6241 36.1336ZM26.6205 31.6599C26.6205 31.9582 26.662 32.2481 26.745 32.5298C26.8279 32.8032 26.9524 33.0476 27.1183 33.263C27.2842 33.4784 27.4916 33.6524 27.7405 33.7849C27.9977 33.9175 28.3005 33.9837 28.6489 33.9837C28.9974 33.9837 29.3002 33.9175 29.5574 33.7849C29.8146 33.6441 30.022 33.466 30.1796 33.2506C30.3455 33.0269 30.4658 32.7742 30.5405 32.4925C30.6234 32.2108 30.6649 31.925 30.6649 31.6351C30.6649 31.3368 30.6234 31.051 30.5405 30.7776C30.4575 30.4959 30.3289 30.2515 30.1547 30.0444C29.9888 29.829 29.7772 29.6592 29.52 29.5349C29.2712 29.4024 28.9766 29.3361 28.6365 29.3361C28.2881 29.3361 27.9853 29.4024 27.7281 29.5349C27.4792 29.6675 27.2718 29.8456 27.1059 30.0693C26.9399 30.2847 26.8155 30.5332 26.7325 30.8149C26.6579 31.0883 26.6205 31.3699 26.6205 31.6599Z" fill="#7C4DFF"/>
<path d="M38.4576 36.059V27.2359H41.8549C42.585 27.2359 43.2279 27.3519 43.7838 27.5839C44.3396 27.8159 44.8042 28.1307 45.1775 28.5283C45.5508 28.926 45.8329 29.3941 46.0237 29.9326C46.2145 30.4628 46.31 31.0303 46.31 31.6351C46.31 32.3061 46.2021 32.915 45.9864 33.4618C45.779 34.0003 45.4803 34.4642 45.0904 34.8536C44.7005 35.2347 44.2318 35.533 43.6842 35.7484C43.1367 35.9555 42.5269 36.059 41.8549 36.059H38.4576ZM43.846 31.6351C43.846 31.2954 43.8004 30.9847 43.7091 30.703C43.6178 30.4214 43.4851 30.1811 43.3109 29.9823C43.145 29.7834 42.9375 29.6302 42.6887 29.5225C42.4398 29.4065 42.1618 29.3485 41.8549 29.3485H40.8842V33.9465H41.8549C42.1701 33.9465 42.4522 33.8885 42.7011 33.7725C42.95 33.6565 43.1574 33.4949 43.3233 33.2878C43.4975 33.0807 43.6261 32.8363 43.7091 32.5546C43.8004 32.273 43.846 31.9664 43.846 31.6351Z" fill="#7C4DFF"/>
<path d="M55.5234 33.9837C55.8055 33.9837 56.0461 33.9216 56.2452 33.7973C56.4443 33.6731 56.6061 33.5115 56.7305 33.3127C56.8549 33.1056 56.9462 32.8695 57.0043 32.6044C57.0624 32.3392 57.0914 32.0617 57.0914 31.7718V27.2359H59.518V31.7718C59.518 32.3848 59.4392 32.9606 59.2816 33.4991C59.124 34.0293 58.8792 34.4891 58.5474 34.8785C58.2155 35.2679 57.7966 35.5744 57.2905 35.7981C56.7927 36.0218 56.2037 36.1336 55.5234 36.1336C54.8182 36.1336 54.2126 36.0176 53.7066 35.7856C53.2088 35.5454 52.7981 35.2264 52.4746 34.8288C52.151 34.4311 51.9146 33.9713 51.7652 33.4494C51.6159 32.9192 51.5412 32.36 51.5412 31.7718V27.2359H53.9679V31.7718C53.9679 32.0617 53.9969 32.3434 54.055 32.6168C54.1131 32.8819 54.2043 33.118 54.3288 33.3251C54.4532 33.5239 54.6108 33.6855 54.8016 33.8098C55.0008 33.9257 55.2413 33.9837 55.5234 33.9837Z" fill="#7C4DFF"/>
<path d="M64.7287 31.5729C64.7287 31.0344 64.8283 30.5042 65.0274 29.9823C65.2348 29.4603 65.5334 28.9923 65.9234 28.578C66.3133 28.1638 66.7862 27.8283 67.342 27.5715C67.8979 27.3146 68.5325 27.1862 69.246 27.1862C70.1005 27.1862 70.8389 27.3643 71.4611 27.7206C72.0916 28.0685 72.5603 28.5325 72.8673 29.1124L71.0131 30.4296C70.9301 30.2142 70.8181 30.0361 70.6771 29.8953C70.5443 29.7545 70.395 29.6426 70.2291 29.5598C70.0632 29.4769 69.8889 29.4189 69.7064 29.3858C69.5322 29.3526 69.3621 29.3361 69.1962 29.3361C68.8478 29.3361 68.545 29.4065 68.2878 29.5473C68.0389 29.6799 67.8315 29.858 67.6656 30.0817C67.5079 30.2971 67.3876 30.5456 67.3047 30.8273C67.23 31.1007 67.1927 31.3741 67.1927 31.6475C67.1927 31.954 67.2383 32.2481 67.3296 32.5298C67.4208 32.8115 67.5536 33.06 67.7278 33.2754C67.902 33.4908 68.1136 33.6648 68.3624 33.7973C68.6196 33.9216 68.9058 33.9837 69.2211 33.9837C69.387 33.9837 69.5571 33.9672 69.7313 33.934C69.9055 33.8926 70.0715 33.8305 70.2291 33.7476C70.395 33.6565 70.5402 33.5447 70.6646 33.4121C70.7974 33.2713 70.9011 33.1014 70.9758 32.9026L72.9544 34.0832C72.8217 34.4063 72.6184 34.6962 72.3446 34.953C72.0791 35.2099 71.7722 35.4253 71.4237 35.5992C71.0836 35.7732 70.7144 35.9058 70.3162 35.9969C69.9263 36.088 69.5447 36.1336 69.1713 36.1336C68.5159 36.1336 67.9145 36.0052 67.3669 35.7484C66.8276 35.4833 66.3589 35.1353 65.9607 34.7045C65.5708 34.2737 65.268 33.7849 65.0523 33.2381C64.8366 32.6913 64.7287 32.1363 64.7287 31.5729Z" fill="#7C4DFF"/>
<path d="M85 29.3485H82.4614V36.059H80.0347V29.3485H77.4836V27.2359H85V29.3485Z" fill="#7C4DFF"/>
</svg>
